# xmcd CD database file
#
# Track frame offsets:
#	150
#	13421
#	26247
#	39439
#	51881
#	64876
#	76515
#	88993
#	100715
#	114314
#	126468
#	139317
#	152686
#	165485
#	177838
#	190080
#	203950
#	215553
#	227820
#	240452
#	253438
#	267421
#	280306
#	292690
#	304920
#	317059
#	329289
#	341554
#
# Disc length: 4726 seconds
#
# Revision: 0
# Processed by: cddbd v1.5.2PL0 Copyright (c) Steve Scherf et al.
# Submitted via: CDex 1.40Release
#
DISCID=9f12741c
DTITLE=Various Artist - The Louisiana Hayride Story (1 of 4)
DYEAR=2006
DGENRE=Country
TTITLE0=Bailes Bros-Whiskey Is The Devil (In Liquid Form)
TTITLE1=Bailes Bros-My Heart Echoes
TTITLE2=King Sacred Quartet-Turn Your Radio On
TTITLE3=Hank Williams-Move It On Over
TTITLE4=Hank Williams-On The Banks Of The Old Pontchartrain
TTITLE5=Johnnie&Jack-Sing Tom Kitty
TTITLE6=Zeke Clements-Brown's Ferry Boogie
TTITLE7=Harmie Smith--I'll Not Be Around
TTITLE8=Bailes Bros-Has The Devil Got A Mortgage On You?
TTITLE9=Curley Williams-Just A-Pickin' And A-Singin'
TTITLE10=Curley Williams-Woe Is Me
TTITLE11=York Bros-New Mississippi River Blues
TTITLE12=York Bros-Hamtramck Mama
TTITLE13=Kitty Wells-Love Or Hate
TTITLE14=Kitty Wells-Gathering Flowers For The Master's Bouquet
TTITLE15=Wayne Raney-Why Don't You Haul Off And Love Me
TTITLE16=Red Sovine-Please Don't Let Me Love You
TTITLE17=Sheb Wooley- Your Papa Ain't Steppin' Anymore
TTITLE18=Hank Thompson-Whoa Sailor
TTITLE19=Hank Snow-The Anniversary Of A Broken Heart
TTITLE20=Paul Howard-Hora Sta Cotton Picker
TTITLE21=Johnnie&Jack-For Old Times Sake
TTITLE22=Hank Williams-Lovesick Blues
TTITLE23=Webb PIerce-High Geared Daddy
TTITLE24=Zeb Turner-Big Fat Papa
TTITLE25=Boots Woodall-Since You've Been Gone
TTITLE26=Slim Whitman-I'm Casting My Lasso Towards The Sky
TTITLE27=Slim Whitman-Birmingham Jail
EXTD=YEAR: 2006 ID3G: 2
EXTT0=
EXTT1=
EXTT2=
EXTT3=
EXTT4=
EXTT5=
EXTT6=
EXTT7=
EXTT8=
EXTT9=
EXTT10=
EXTT11=
EXTT12=
EXTT13=
EXTT14=
EXTT15=
EXTT16=
EXTT17=
EXTT18=
EXTT19=
EXTT20=
EXTT21=
EXTT22=
EXTT23=
EXTT24=
EXTT25=
EXTT26=
EXTT27=
PLAYORDER=
